<?xml version="1.0" encoding="utf-8"?>
<!-- Generator: Adobe Illustrator 24.1.0, SVG Export Plug-In . SVG Version: 6.00 Build 0)  -->
<svg version="1.1" id="Layer_1" xmlns="http://www.w3.org/2000/svg" xmlns:xlink="http://www.w3.org/1999/xlink" x="0px" y="0px"
	 viewBox="0 0 512 512" style="enable-background:new 0 0 512 512;" xml:space="preserve">
<style type="text/css">
	.st0{fill:#7565E5;}
</style>
<path class="st0" d="M17.1,232.5v46.9c0,4.7-3.8,8.5-8.5,8.5S0,284.2,0,279.5v-46.9c0-4.7,3.8-8.5,8.5-8.5S17.1,227.8,17.1,232.5z
	 M503.5,224c-4.7,0-8.5,3.8-8.5,8.5v46.9c0,4.7,3.8,8.5,8.5,8.5s8.5-3.8,8.5-8.5v-46.9C512,227.8,508.2,224,503.5,224z M279.5,494.9
	h-46.9c-4.7,0-8.5,3.8-8.5,8.5s3.8,8.5,8.5,8.5h46.9c4.7,0,8.5-3.8,8.5-8.5C288,498.8,284.2,494.9,279.5,494.9z M232.5,17.1h46.9
	c4.7,0,8.5-3.8,8.5-8.5S284.2,0,279.5,0h-46.9c-4.7,0-8.5,3.8-8.5,8.5S227.8,17.1,232.5,17.1z M183.1,156.1c4.7,0,8.5-3.8,8.5-8.5
	s-3.8-8.5-8.5-8.5c-32.5,0-58.9,26.4-58.9,58.9s26.4,58.9,58.9,58.9c50.1,0,77-58.9,45-96.8c-3-3.6-8.4-4.1-12-1
	c-3.6,3-4.1,8.4-1,12c22.7,26.9,3.7,68.8-31.9,68.8c-23,0-41.8-18.7-41.8-41.8S160.1,156.1,183.1,156.1z M326.1,161.9
	c11.6,0,21.1,9.5,21.1,21.1c0,4.7,3.8,8.5,8.5,8.5s8.5-3.8,8.5-8.5c0-21-17.1-38.1-38.1-38.1S288,162,288,183s17.1,38.1,38.1,38.1
	c4.7,0,8.5-3.8,8.5-8.5s-3.8-8.5-8.5-8.5c-11.6,0-21.1-9.5-21.1-21.1S314.4,161.9,326.1,161.9z M192.8,304.7
	c16.7,0,30.2,13.6,30.2,30.2s-13.6,30.2-30.2,30.2s-30.2-13.6-30.2-30.2S176.2,304.7,192.8,304.7z M192.8,321.8
	c-7.3,0-13.2,5.9-13.2,13.2s5.9,13.2,13.2,13.2S206,342.3,206,335S200.1,321.8,192.8,321.8z M263.3,321.1
	c0,32.5,26.4,58.9,58.9,58.9s58.9-26.4,58.9-58.9c0-4.7-3.8-8.5-8.5-8.5s-8.5,3.8-8.5,8.5c0,23-18.7,41.8-41.8,41.8
	s-41.8-18.7-41.8-41.8c0-35.2,41-54.5,68.1-32.5c3.7,3,9,2.4,12-1.3c3-3.7,2.4-9-1.3-12C321,244.4,263.3,271.6,263.3,321.1
	L263.3,321.1z M470.4,247.5h-21.5c-2-46.8-20.8-89.3-50.5-121.8l15.3-15.3c3.3-3.3,3.3-8.7,0-12.1c-3.3-3.3-8.7-3.3-12.1,0
	l-15.3,15.3c-32.4-29.6-75-48.4-121.8-50.5V41.6c0-4.7-3.8-8.5-8.5-8.5c-4.7,0-8.5,3.8-8.5,8.5v21.5c-29.2,1.3-57.9,9.2-83.5,23.1
	c-4.1,2.2-5.7,7.4-3.4,11.6c2.2,4.1,7.4,5.7,11.6,3.4C197.7,87.3,226.7,80,256,80c97,0,176,79,176,176c0,4.7,3.8,8.5,8.5,8.5h29.9
	c4.7,0,8.5-3.8,8.5-8.5C478.9,251.3,475.1,247.5,470.4,247.5z M70.5,103.6l33.2-33.2c3.3-3.3,3.3-8.7,0-12.1
	c-3.3-3.3-8.7-3.3-12.1,0L58.4,91.6c-3.3,3.3-3.3,8.7,0,12.1C61.7,107,67.1,107,70.5,103.6z M441.5,408.4l-33.2,33.2
	c-5.4,5.4-1.5,14.6,6,14.6c2.2,0,4.4-0.8,6-2.5l33.2-33.2c3.3-3.3,3.3-8.7,0-12.1C450.3,405,444.9,405,441.5,408.4L441.5,408.4z
	 M70.5,408.4c-3.3-3.3-8.7-3.3-12.1,0c-3.3,3.3-3.3,8.7,0,12.1l33.2,33.2c3.3,3.3,8.7,3.3,12.1,0c3.3-3.3,3.3-8.7,0-12.1L70.5,408.4
	z M441.5,103.6c1.7,1.7,3.8,2.5,6,2.5c7.5,0,11.4-9.2,6-14.6l-33.2-33.2c-3.3-3.3-8.7-3.3-12.1,0c-3.3,3.3-3.3,8.7,0,12.1
	L441.5,103.6z M413.6,413.6c3.3-3.3,3.3-8.7,0-12.1l-15.2-15.2c18.5-20.2,32.5-44.1,41.1-70.5c1.5-4.5-1-9.3-5.5-10.8
	s-9.3,1-10.8,5.5c-23,71-89.3,121.5-167.2,121.5c-97,0-176-79-176-176c0-47,18.3-91.2,51.5-124.5c3.3-3.3,3.3-8.7,0-12.1l-21.1-21.1
	c-3.3-3.3-8.7-3.3-12.1,0c-3.3,3.3-3.3,8.7,0,12.1l15.2,15.2C82.7,159.2,65,201.9,63,247.4H41.6c-4.7,0-8.5,3.8-8.5,8.5
	c0,4.7,3.8,8.5,8.5,8.5h21.5c2,46.8,20.8,89.3,50.5,121.8l-15.3,15.3c-5.4,5.4-1.5,14.6,6,14.6c2.2,0,4.4-0.8,6-2.5l15.3-15.3
	c32.4,29.7,74.9,48.5,121.8,50.5v21.5c0,4.7,3.8,8.5,8.5,8.5c4.7,0,8.5-3.8,8.5-8.5v-21.5c46.7-2,89-20.5,121.8-50.4l15.2,15.2
	C404.9,417,410.3,417,413.6,413.6L413.6,413.6z"/>
</svg>
