<?xml version="1.0" standalone="no"?>
<!DOCTYPE svg PUBLIC "-//W3C//DTD SVG 20010904//EN"
 "http://www.w3.org/TR/2001/REC-SVG-20010904/DTD/svg10.dtd">
<svg version="1.0" xmlns="http://www.w3.org/2000/svg"
 width="500.000000pt" height="500.000000pt" viewBox="0 0 500.000000 500.000000"
 preserveAspectRatio="xMidYMid meet">
<metadata>
Created by potrace 1.11, written by Peter Selinger 2001-2013
</metadata>
<g transform="translate(0.000000,500.000000) scale(0.100000,-0.100000)"
fill="#000000" stroke="none">
<path d="M2262 4723 c-7 -3 -19 -17 -27 -33 -19 -37 -3 -87 32 -101 36 -14
446 -12 477 3 44 20 51 75 13 116 -20 22 -24 22 -251 21 -127 0 -237 -3 -244
-6z"/>
<path d="M2450 4418 c-18 -19 -20 -35 -20 -130 l0 -108 -37 -1 c-21 -1 -47 -3
-58 -4 -101 -11 -139 -18 -193 -31 -35 -9 -68 -17 -75 -18 -70 -14 -264 -89
-341 -132 -53 -29 -69 -61 -55 -104 22 -63 57 -64 180 -6 83 40 213 87 273
101 91 20 178 35 234 40 75 7 266 8 297 2 11 -3 41 -7 66 -11 355 -52 670
-219 914 -487 198 -217 348 -533 381 -799 3 -30 8 -66 10 -80 2 -14 5 -59 5
-100 2 -63 6 -78 25 -97 25 -25 29 -25 214 -24 135 1 146 4 163 39 18 36 11
68 -19 91 -22 17 -40 20 -125 19 -54 -1 -101 1 -103 3 -2 2 -6 38 -10 79 -7
81 -9 96 -32 209 -33 160 -122 379 -211 519 -43 68 -132 188 -162 219 -11 12
-21 25 -21 29 0 4 27 34 59 66 72 70 91 96 91 123 -1 30 -31 62 -68 70 -30 6
-38 2 -112 -71 l-79 -77 -56 44 c-232 182 -444 288 -697 348 -110 26 -188 37
-265 40 l-43 1 0 104 c0 89 -3 107 -21 130 -27 34 -79 36 -109 4z"/>
<path d="M1094 4237 c-36 -20 -325 -321 -331 -345 -12 -47 54 -100 102 -81 11
4 93 81 182 171 l163 164 -10 34 c-5 19 -15 40 -22 46 -19 18 -61 24 -84 11z"/>
<path d="M3835 4227 c-22 -21 -29 -40 -26 -78 1 -22 316 -332 344 -340 12 -3
32 -2 44 2 22 8 51 54 47 77 -1 6 -2 16 -3 21 -2 14 -322 331 -335 332 -6 0
-19 2 -29 4 -10 2 -29 -6 -42 -18z"/>
<path d="M1153 3890 c-12 -5 -26 -18 -32 -29 -23 -43 -13 -67 65 -144 l75 -76
-61 -77 c-124 -156 -196 -281 -265 -459 -40 -103 -77 -239 -90 -330 -15 -108
-22 -181 -18 -187 2 -5 -45 -8 -105 -8 -95 0 -111 -2 -130 -20 -12 -12 -23
-25 -23 -30 -1 -6 -2 -16 -3 -22 -3 -20 22 -65 39 -72 9 -3 61 -6 116 -6 71 0
101 -4 104 -12 2 -7 6 -46 9 -86 23 -297 160 -631 365 -884 l63 -78 -61 -61
c-101 -100 -112 -129 -66 -174 42 -43 68 -34 156 51 84 83 78 81 130 34 73
-67 232 -170 352 -228 127 -62 286 -116 402 -136 17 -3 41 -8 55 -11 14 -3 59
-7 100 -11 41 -3 81 -7 87 -9 9 -3 12 -32 11 -97 0 -52 2 -104 6 -116 11 -34
57 -54 95 -41 39 14 50 49 49 162 -1 48 1 89 3 91 2 2 40 6 84 9 76 6 122 13
155 22 8 2 31 7 50 10 49 8 226 63 280 87 159 71 299 155 405 242 28 23 57 47
66 54 13 10 27 1 92 -63 85 -84 118 -95 161 -52 21 21 23 31 17 83 0 6 -32 42
-71 80 -38 37 -70 71 -70 74 0 4 12 20 26 36 116 131 232 327 298 501 42 112
37 150 -23 171 -47 16 -87 -15 -106 -82 -9 -30 -43 -108 -76 -173 -183 -363
-484 -629 -862 -762 -48 -17 -98 -33 -110 -35 -12 -3 -53 -12 -92 -20 -189
-40 -443 -39 -626 3 -486 111 -887 445 -1082 901 -36 85 -80 225 -91 290 -3
19 -7 44 -10 55 -36 174 -24 423 30 632 61 240 189 475 355 653 56 61 68 81
63 110 -5 33 -223 250 -250 249 -10 0 -29 -4 -41 -9z"/>
<path d="M1708 3493 c-91 -30 -141 -63 -209 -134 -227 -235 -171 -628 114
-795 160 -94 375 -90 532 10 142 91 236 259 235 419 0 135 -20 203 -86 303
-44 66 -77 81 -125 58 -50 -25 -52 -71 -4 -138 51 -72 68 -133 63 -226 -15
-268 -288 -424 -526 -301 -62 32 -129 103 -160 169 -22 48 -27 71 -27 147 0
81 3 97 31 155 64 133 148 187 336 215 29 5 42 13 53 35 9 17 15 32 15 35 0
18 -33 65 -49 70 -37 11 -123 2 -193 -22z"/>
<path d="M3001 3450 c-141 -51 -232 -194 -217 -342 15 -156 144 -288 291 -298
57 -4 74 0 95 22 44 48 13 113 -59 123 -166 24 -237 200 -124 310 68 66 172
72 239 13 43 -38 60 -70 68 -127 7 -51 26 -77 64 -84 31 -6 81 20 83 43 6 53
-5 121 -25 165 -72 157 -253 233 -415 175z"/>
<path d="M300 2760 c-11 -11 -20 -28 -21 -37 -1 -24 -1 -402 0 -431 1 -33 44
-72 73 -67 39 8 66 26 72 50 3 13 6 120 5 239 0 199 -2 217 -20 241 -26 32
-80 34 -109 5z"/>
<path d="M4602 2757 c-21 -23 -22 -31 -22 -253 1 -246 2 -254 54 -274 31 -11
79 7 90 35 3 9 6 120 6 246 0 216 -1 230 -20 249 -28 28 -81 26 -108 -3z"/>
<path d="M2985 2443 c-144 -27 -299 -143 -366 -275 -115 -226 -33 -523 185
-663 306 -196 719 -13 780 346 19 113 -1 159 -70 159 -45 0 -74 -38 -74 -96 0
-54 -31 -139 -70 -193 -79 -108 -235 -166 -370 -136 -99 22 -203 107 -249 205
-22 47 -26 68 -26 150 1 83 4 102 28 151 34 70 109 142 184 176 108 50 258 36
346 -31 52 -40 90 -44 121 -13 37 37 35 80 -5 116 -38 35 -137 84 -199 99 -43
10 -172 13 -215 5z"/>
<path d="M1844 2055 c-101 -50 -155 -138 -150 -245 6 -147 114 -252 261 -253
143 -1 256 107 258 247 2 97 -18 149 -80 208 -72 69 -200 88 -289 43z m167
-142 c30 -18 59 -67 59 -100 0 -32 -39 -84 -74 -98 -70 -29 -144 16 -151 91
-9 93 86 154 166 107z"/>
<path d="M790 1182 c-15 -12 -22 -29 -23 -55 -1 -36 7 -46 159 -197 174 -175
197 -189 247 -150 20 16 27 30 27 57 0 33 -13 49 -164 199 -177 176 -195 187
-246 146z"/>
<path d="M3982 1048 c-142 -142 -180 -187 -177 -213 6 -50 52 -84 97 -69 28 9
311 289 332 328 17 33 5 80 -24 96 -50 27 -68 15 -228 -142z"/>
<path d="M2252 407 c-34 -37 -33 -89 4 -113 22 -15 55 -17 237 -16 266 0 243
-2 267 22 30 30 27 83 -7 110 -25 20 -37 21 -254 20 -220 -1 -227 -2 -247 -23z"/>
</g>
</svg>
